<svg width="101" height="138" viewBox="0 0 101 138" fill="none" xmlns="http://www.w3.org/2000/svg">
<path d="M5.62 136V124.192H8.986C9.646 124.192 10.246 124.252 10.786 124.372C11.338 124.492 11.806 124.69 12.19 124.966C12.574 125.23 12.874 125.584 13.09 126.028C13.306 126.472 13.414 127.018 13.414 127.666C13.414 128.29 13.306 128.83 13.09 129.286C12.886 129.742 12.592 130.12 12.208 130.42C11.824 130.72 11.362 130.948 10.822 131.104C10.294 131.248 9.706 131.32 9.058 131.32H7.114V136H5.62ZM7.114 130.096H8.878C9.91 130.096 10.672 129.904 11.164 129.52C11.668 129.124 11.92 128.506 11.92 127.666C11.92 126.814 11.656 126.226 11.128 125.902C10.612 125.566 9.838 125.398 8.806 125.398H7.114V130.096ZM19.4153 136V124.192H23.1053C23.7053 124.192 24.2573 124.252 24.7613 124.372C25.2773 124.48 25.7153 124.666 26.0753 124.93C26.4473 125.194 26.7353 125.536 26.9393 125.956C27.1433 126.376 27.2453 126.892 27.2453 127.504C27.2453 128.428 27.0053 129.166 26.5253 129.718C26.0453 130.27 25.3973 130.648 24.5813 130.852L27.5873 136H25.8953L23.0513 131.014H20.9093V136H19.4153ZM20.9093 129.79H22.8893C23.8133 129.79 24.5213 129.604 25.0133 129.232C25.5053 128.848 25.7513 128.272 25.7513 127.504C25.7513 126.724 25.5053 126.178 25.0133 125.866C24.5213 125.554 23.8133 125.398 22.8893 125.398H20.9093V129.79ZM37.6194 136.216C36.8754 136.216 36.1914 136.072 35.5674 135.784C34.9554 135.496 34.4274 135.088 33.9834 134.56C33.5394 134.02 33.1914 133.372 32.9394 132.616C32.6994 131.848 32.5794 130.99 32.5794 130.042C32.5794 129.094 32.6994 128.248 32.9394 127.504C33.1914 126.748 33.5394 126.112 33.9834 125.596C34.4274 125.068 34.9554 124.666 35.5674 124.39C36.1914 124.114 36.8754 123.976 37.6194 123.976C38.3634 123.976 39.0414 124.12 39.6534 124.408C40.2774 124.684 40.8114 125.086 41.2554 125.614C41.7114 126.13 42.0594 126.766 42.2994 127.522C42.5514 128.266 42.6774 129.106 42.6774 130.042C42.6774 130.99 42.5514 131.848 42.2994 132.616C42.0594 133.372 41.7114 134.02 41.2554 134.56C40.8114 135.088 40.2774 135.496 39.6534 135.784C39.0414 136.072 38.3634 136.216 37.6194 136.216ZM37.6194 134.902C38.1474 134.902 38.6214 134.788 39.0414 134.56C39.4734 134.332 39.8394 134.008 40.1394 133.588C40.4514 133.156 40.6914 132.646 40.8594 132.058C41.0274 131.458 41.1114 130.786 41.1114 130.042C41.1114 129.31 41.0274 128.65 40.8594 128.062C40.6914 127.474 40.4514 126.976 40.1394 126.568C39.8394 126.16 39.4734 125.848 39.0414 125.632C38.6214 125.404 38.1474 125.29 37.6194 125.29C37.0914 125.29 36.6114 125.404 36.1794 125.632C35.7594 125.848 35.3934 126.16 35.0814 126.568C34.7814 126.976 34.5474 127.474 34.3794 128.062C34.2114 128.65 34.1274 129.31 34.1274 130.042C34.1274 130.786 34.2114 131.458 34.3794 132.058C34.5474 132.646 34.7814 133.156 35.0814 133.588C35.3934 134.008 35.7594 134.332 36.1794 134.56C36.6114 134.788 37.0914 134.902 37.6194 134.902ZM50.2918 136.216C48.8158 136.216 47.7298 135.586 47.0338 134.326L48.1138 133.57C48.3778 134.038 48.6778 134.38 49.0138 134.596C49.3498 134.8 49.7278 134.902 50.1478 134.902C50.7838 134.902 51.2578 134.71 51.5698 134.326C51.8818 133.93 52.0378 133.282 52.0378 132.382V124.192H53.5498V132.526C53.5498 133.03 53.4838 133.51 53.3518 133.966C53.2318 134.41 53.0398 134.8 52.7758 135.136C52.5238 135.472 52.1878 135.736 51.7678 135.928C51.3598 136.12 50.8678 136.216 50.2918 136.216ZM60.3442 136V124.192H67.1482V125.452H61.8382V129.16H66.3202V130.438H61.8382V134.722H67.3282V136H60.3442ZM77.9004 136.216C77.1564 136.216 76.4724 136.078 75.8484 135.802C75.2244 135.526 74.6784 135.13 74.2104 134.614C73.7544 134.086 73.3944 133.444 73.1304 132.688C72.8784 131.92 72.7524 131.056 72.7524 130.096C72.7524 129.148 72.8844 128.296 73.1484 127.54C73.4124 126.784 73.7784 126.142 74.2464 125.614C74.7144 125.086 75.2664 124.684 75.9024 124.408C76.5384 124.12 77.2344 123.976 77.9904 123.976C78.7104 123.976 79.3404 124.126 79.8804 124.426C80.4324 124.714 80.8824 125.05 81.2304 125.434L80.4204 126.406C80.1084 126.07 79.7544 125.8 79.3584 125.596C78.9624 125.392 78.5124 125.29 78.0084 125.29C77.4444 125.29 76.9344 125.404 76.4784 125.632C76.0224 125.848 75.6324 126.166 75.3084 126.586C74.9844 126.994 74.7324 127.492 74.5524 128.08C74.3844 128.668 74.3004 129.328 74.3004 130.06C74.3004 130.804 74.3844 131.476 74.5524 132.076C74.7324 132.664 74.9784 133.168 75.2904 133.588C75.6024 134.008 75.9804 134.332 76.4244 134.56C76.8804 134.788 77.3904 134.902 77.9544 134.902C78.5304 134.902 79.0344 134.788 79.4664 134.56C79.8984 134.32 80.3064 133.99 80.6904 133.57L81.5184 134.506C81.0504 135.046 80.5224 135.466 79.9344 135.766C79.3464 136.066 78.6684 136.216 77.9004 136.216ZM89.4512 136V125.452H85.8872V124.192H94.5272V125.452H90.9632V136H89.4512Z" fill="white"/>
<path d="M49.118 68.2018V18.3127" stroke="white" stroke-linecap="round" stroke-linejoin="round"/>
<path d="M49.1181 53.712L36.1649 40.2129V18.3127" stroke="white" stroke-linecap="round" stroke-linejoin="round"/>
<path d="M49 62L22.2823 47.4569V25.5587" stroke="white" stroke-linecap="round" stroke-linejoin="round"/>
<path d="M36.1649 31.4951L28.391 26.3322V18.3127" stroke="white" stroke-linecap="round" stroke-linejoin="round"/>
<path d="M49.5 57.5L62 42.5661V22" stroke="white" stroke-linecap="round" stroke-linejoin="round"/>
<path d="M49.5 66L76 53.7202V29" stroke="white" stroke-linecap="round" stroke-linejoin="round"/>
<path d="M62.167 35.4642L69.9409 30.3033V22.2819" stroke="white" stroke-linecap="round" stroke-linejoin="round"/>
<path d="M76.0516 49.0544L86.9767 43.8936V35.8721" stroke="white" stroke-linecap="round" stroke-linejoin="round"/>
<path d="M22.2823 42.0564L14.0233 36.8935V28.8741" stroke="white" stroke-linecap="round" stroke-linejoin="round"/>
<path d="M49.2139 41.4027L55.0453 37.0945V29.5258" stroke="white" stroke-linecap="round" stroke-linejoin="round"/>
<path d="M52.6885 16.5762C52.6885 18.8255 50.8573 20.6523 48.5942 20.6523C46.3312 20.6523 44.5 18.8255 44.5 16.5762C44.5 14.3268 46.3312 12.5 48.5942 12.5C50.8573 12.5 52.6885 14.3268 52.6885 16.5762Z" fill="#7B61FF" stroke="white"/>
<path d="M73.6885 22.5762C73.6885 24.8255 71.8573 26.6523 69.5942 26.6523C67.3312 26.6523 65.5 24.8255 65.5 22.5762C65.5 20.3268 67.3312 18.5 69.5942 18.5C71.8573 18.5 73.6885 20.3268 73.6885 22.5762Z" fill="#7B61FF" stroke="white"/>
<path d="M17.6885 26.5762C17.6885 28.8255 15.8573 30.6523 13.5942 30.6523C11.3312 30.6523 9.5 28.8255 9.5 26.5762C9.5 24.3268 11.3312 22.5 13.5942 22.5C15.8573 22.5 17.6885 24.3268 17.6885 26.5762Z" fill="#7B61FF" stroke="white"/>
<path d="M32.6885 17.5762C32.6885 19.8255 30.8573 21.6523 28.5942 21.6523C26.3312 21.6523 24.5 19.8255 24.5 17.5762C24.5 15.3268 26.3312 13.5 28.5942 13.5C30.8573 13.5 32.6885 15.3268 32.6885 17.5762Z" fill="#7B61FF" stroke="white"/>
<path d="M90.6885 34.5762C90.6885 36.8255 88.8573 38.6523 86.5942 38.6523C84.3312 38.6523 82.5 36.8255 82.5 34.5762C82.5 32.3268 84.3312 30.5 86.5942 30.5C88.8573 30.5 90.6885 32.3268 90.6885 34.5762Z" fill="#7B61FF" stroke="white"/>
<path d="M76.0496 36.1523C78.587 36.1523 80.6439 34.1035 80.6439 31.5762C80.6439 29.0488 78.587 27 76.0496 27C73.5123 27 71.4554 29.0488 71.4554 31.5762C71.4554 34.1035 73.5123 36.1523 76.0496 36.1523Z" fill="white"/>
<path d="M62 24C64.7614 24 67 21.7614 67 19C67 16.2386 64.7614 14 62 14C59.2386 14 57 16.2386 57 19C57 21.7614 59.2386 24 62 24Z" fill="white"/>
<path d="M36 20C38.7614 20 41 17.7614 41 15C41 12.2386 38.7614 10 36 10C33.2386 10 31 12.2386 31 15C31 17.7614 33.2386 20 36 20Z" fill="white"/>
<path d="M28.4285 62.766L28.4287 62.7661L48.5307 68.2454L48.5328 68.2474L48.6604 68.2822C49.077 68.3958 49.2662 68.6872 49.2662 68.9205V99.3904C49.2662 99.5739 49.163 99.7644 48.9412 99.9053C48.7191 100.046 48.4082 100.113 48.0876 100.04L27.8583 95.415L27.8578 95.4149C27.4114 95.3133 27.2053 95.0069 27.2053 94.7655V63.4044C27.2053 63.2147 27.3148 63.0187 27.5482 62.8775C27.7816 62.7364 28.1044 62.6776 28.4285 62.766Z" fill="#7B61FF" stroke="white"/>
<path d="M48.9163 68.685L70.8989 62.6938V94.9949L48.9163 100.02V68.685Z" stroke="white" stroke-linecap="round" stroke-linejoin="round"/>
<path d="M24.767 65.4732H21.5608C21.4161 77.1166 21.2734 88.7601 21.1287 100.403C24.7751 100.044 29.6649 99.9507 35.2885 100.956C39.2468 101.664 42.6201 102.746 45.3208 103.824C45.9221 105.463 47.5772 106.441 49.1996 106.186C50.6081 105.964 51.7658 104.85 52.0838 103.392C55.1248 102.308 58.9446 101.23 63.4226 100.588C68.6732 99.835 73.2633 99.9061 76.8425 100.219C76.7508 88.6362 76.6611 77.0537 76.5694 65.4732H73.9462" stroke="white" stroke-linecap="round" stroke-linejoin="round"/>
</svg>
