<svg width="234" height="264" viewBox="0 0 234 264" fill="none" xmlns="http://www.w3.org/2000/svg">
<path d="M113.798 157.941V48.5" stroke="white" stroke-width="2" stroke-linecap="round" stroke-linejoin="round"/>
<path d="M113.798 124.386L83.788 93.1247V42.4084" stroke="white" stroke-width="2" stroke-linecap="round" stroke-linejoin="round"/>
<path d="M113.525 143.579L51.6243 109.9V59.1886" stroke="white" stroke-width="2" stroke-linecap="round" stroke-linejoin="round"/>
<path d="M84 73L66 64.7753V52" stroke="white" stroke-width="2" stroke-linecap="round" stroke-linejoin="round"/>
<path d="M114.683 133.158L143.644 98.5742V50.9474" stroke="white" stroke-width="2" stroke-linecap="round" stroke-linejoin="round"/>
<path d="M114.683 152.842L176.079 124.405V67.1578" stroke="white" stroke-width="2" stroke-linecap="round" stroke-linejoin="round"/>
<path d="M144.031 82.1276L161 70V62.3239" stroke="white" stroke-width="2" stroke-linecap="round" stroke-linejoin="round"/>
<path d="M176 113.5L200 102.361V90.7131" stroke="white" stroke-width="2" stroke-linecap="round" stroke-linejoin="round"/>
<path d="M52 97L32 87.2087V72" stroke="white" stroke-width="2" stroke-linecap="round" stroke-linejoin="round"/>
<path d="M114.02 95.8799L127.531 85.9031V68.3755" stroke="white" stroke-width="2" stroke-linecap="round" stroke-linejoin="round"/>
<path d="M123.288 38.5974C123.288 43.8938 118.975 48.1948 113.644 48.1948C108.314 48.1948 104 43.8938 104 38.5974C104 33.3011 108.314 29 113.644 29C118.975 29 123.288 33.3011 123.288 38.5974Z" stroke="white" stroke-width="2"/>
<path d="M170.882 52.2816C170.882 57.578 166.569 61.8791 161.238 61.8791C155.908 61.8791 151.594 57.578 151.594 52.2816C151.594 46.9853 155.908 42.6842 161.238 42.6842C166.569 42.6842 170.882 46.9853 170.882 52.2816Z" stroke="white" stroke-width="2"/>
<path d="M41.1397 61.5448C41.1397 66.8412 36.826 71.1422 31.4956 71.1422C26.1652 71.1422 21.8515 66.8412 21.8515 61.5448C21.8515 56.2484 26.1652 51.9474 31.4956 51.9474C36.826 51.9474 41.1397 56.2484 41.1397 61.5448Z" stroke="white" stroke-width="2"/>
<path d="M75.2882 41.5974C75.2882 46.8938 70.9745 51.1948 65.6441 51.1948C60.3137 51.1948 56 46.8938 56 41.5974C56 36.3011 60.3137 32 65.6441 32C70.9745 32 75.2882 36.3011 75.2882 41.5974Z" stroke="white" stroke-width="2"/>
<path d="M210.268 80.0711C210.268 85.3674 205.955 89.6685 200.624 89.6685C195.294 89.6685 190.98 85.3674 190.98 80.0711C190.98 74.7747 195.294 70.4736 200.624 70.4736C205.955 70.4736 210.268 74.7747 210.268 80.0711Z" stroke="white" stroke-width="2"/>
<path d="M176.194 83.7212C182.073 83.7212 186.838 78.9766 186.838 73.1238C186.838 67.271 182.073 62.5264 176.194 62.5264C170.316 62.5264 165.55 67.271 165.55 73.1238C165.55 78.9766 170.316 83.7212 176.194 83.7212Z" fill="white"/>
<path d="M143.644 55.5789C150.041 55.5789 155.228 50.3948 155.228 44C155.228 37.6051 150.041 32.421 143.644 32.421C137.246 32.421 132.059 37.6051 132.059 44C132.059 50.3948 137.246 55.5789 143.644 55.5789Z" fill="white"/>
<path d="M83.4059 46.3157C89.8037 46.3157 94.9901 41.1317 94.9901 34.7368C94.9901 28.3419 89.8037 23.1578 83.4059 23.1578C77.0082 23.1578 71.8218 28.3419 71.8218 34.7368C71.8218 41.1317 77.0082 46.3157 83.4059 46.3157Z" fill="white"/>
<path d="M65 146.101L65.0002 146.101L111.238 158.686L111.243 158.691L111.498 158.76C112.505 159.035 113 159.752 113 160.367V230.294C113 230.774 112.728 231.254 112.184 231.599C111.64 231.944 110.885 232.104 110.109 231.928C110.109 231.928 110.109 231.928 110.109 231.928L63.6163 221.314L63.6154 221.314C62.5379 221.069 62 220.318 62 219.68V147.708C62 147.212 62.2882 146.718 62.8594 146.373C63.4306 146.029 64.2149 145.887 65 146.101Z" fill="white" stroke="white" stroke-width="2"/>
<path d="M113.331 159.06L164.261 145.186V219.988L113.331 231.625V159.06Z" stroke="white" stroke-width="2" stroke-linecap="round" stroke-linejoin="round"/>
<path d="M57.3808 151.622H49.9526C49.6173 178.586 49.2868 205.55 48.9515 232.513C57.3997 231.681 68.7285 231.465 81.7574 233.792C90.9281 235.433 98.7435 237.939 105.001 240.436C106.394 244.23 110.228 246.496 113.987 245.904C117.25 245.391 119.933 242.81 120.669 239.434C127.715 236.923 136.565 234.427 146.939 232.941C159.104 231.197 169.739 231.361 178.031 232.086C177.819 205.263 177.611 178.44 177.398 151.622H171.321" stroke="white" stroke-width="2" stroke-linecap="round" stroke-linejoin="round"/>
</svg>
